<svg xmlns="http://www.w3.org/2000/svg" viewBox="0 0 100 100" width="100" height="100">
<linearGradient id="bgGradient" x1="0%" y1="0%" x2="100%" y2="100%">
<stop offset="0%" style="stop-color:#FFE4E1; stop-opacity:1" />
<stop offset="100%" style="stop-color:#FFD1DC; stop-opacity:1" />
</linearGradient>
<circle cx="50" cy="50" r="48" fill="url(#bgGradient)" stroke="#FFB6C1" stroke-width="2"/>
<ellipse cx="30" cy="35" rx="18" ry="22" fill="#FFB6C1" transform="rotate(-20 30 35)"/>
<ellipse cx="70" cy="35" rx="18" ry="22" fill="#FFB6C1" transform="rotate(20 70 35)"/>
<ellipse cx="30" cy="36" rx="14" ry="17" fill="#FFC0CB" transform="rotate(-20 30 35)"/>
<ellipse cx="70" cy="36" rx="14" ry="17" fill="#FFC0CB" transform="rotate(20 70 35)"/>
<circle cx="50" cy="55" r="32" fill="#FFB6C1"/>
<circle cx="38" cy="50" r="4.5" fill="#333"/>
<circle cx="62" cy="50" r="4.5" fill="#333"/>
<circle cx="39.5" cy="48" r="2" fill="white"/>
<circle cx="63.5" cy="48" r="2" fill="white"/>
<circle cx="36.5" cy="51.5" r="1.2" fill="white" opacity="0.6"/>
<circle cx="60.5" cy="51.5" r="1.2" fill="white" opacity="0.6"/>
<ellipse cx="50" cy="62" rx="11" ry="8" fill="#FF69B4" stroke="#D1367E" stroke-width="1.5"/>
<circle cx="45" cy="61" r="2.5" fill="#A52A2A"/>
<circle cx="55" cy="61" r="2.5" fill="#A52A2A"/>
<circle cx="30" cy="58" r="6" fill="#FF9EB5" opacity="0.65"/>
<circle cx="70" cy="58" r="6" fill="#FF9EB5" opacity="0.65"/>
<path d="M42 66 Q50 78 58 66 Q50 74 42 66 Z" fill="#D1367E"/>
</svg>